<svg xmlns="http://www.w3.org/2000/svg" version="1.1" xmlns:xlink="http://www.w3.org/1999/xlink" xmlns:svgjs="http://svgjs.dev/svgjs" viewBox="0 0 10.98205829571569 2.9395508193529825"><g transform="matrix(1,0,0,1,2.8988742760641473,0.5000629096764913)"><g><path d=" M 0.498 0.24449999999999994 L 0.17400000000000002 1.0065 Q 0.1635 1.035 0.14175000000000001 1.0507499999999999 Q 0.12 1.0665 0.0945 1.0665 Q 0.054 1.0665 0.0345 1.044 Q 0.015 1.0214999999999999 0.015 0.9884999999999999 Q 0.015 0.975 0.0195 0.96 L 0.393 0.06299999999999994 Q 0.405 0.03299999999999992 0.42975 0.01649999999999996 Q 0.4545 0 0.483 0.0029999999999998916 Q 0.51 0.0029999999999998916 0.53325 0.018749999999999822 Q 0.5565 0.034499999999999975 0.5670000000000001 0.06299999999999994 L 0.936 0.942 Q 0.9435 0.9614999999999999 0.9435 0.978 Q 0.9435 1.0185 0.91725 1.0425 Q 0.891 1.0665 0.8595 1.0665 Q 0.8325 1.0665 0.81075 1.05 Q 0.789 1.0334999999999999 0.777 1.005 L 0.4545 0.25349999999999995 L 0.498 0.24449999999999994 M 0.2205 0.8234999999999999 L 0.303 0.6509999999999999 L 0.708 0.6509999999999999 L 0.7365 0.8234999999999999 L 0.2205 0.8234999999999999 M 1.5359655761718751 0.008999999999999897 Q 1.643965576171875 0.008999999999999897 1.727965576171875 0.04949999999999988 Q 1.811965576171875 0.08999999999999997 1.869715576171875 0.16274999999999995 Q 1.927465576171875 0.23549999999999993 1.956715576171875 0.3307499999999999 Q 1.9859655761718749 0.42599999999999993 1.9859655761718749 0.5339999999999999 Q 1.9859655761718749 0.6795 1.933465576171875 0.79875 Q 1.8809655761718749 0.9179999999999999 1.781215576171875 0.9884999999999999 Q 1.6814655761718749 1.059 1.5359655761718751 1.059 L 1.177465576171875 1.059 Q 1.138465576171875 1.059 1.112215576171875 1.0327499999999998 Q 1.085965576171875 1.0065 1.085965576171875 0.9674999999999999 L 1.085965576171875 0.10049999999999992 Q 1.085965576171875 0.06149999999999989 1.112215576171875 0.035250000000000004 Q 1.138465576171875 0.008999999999999897 1.177465576171875 0.008999999999999897 L 1.5359655761718751 0.008999999999999897 M 1.520965576171875 0.8865 Q 1.615465576171875 0.8865 1.675465576171875 0.83775 Q 1.7354655761718751 0.7889999999999999 1.763215576171875 0.70875 Q 1.790965576171875 0.6285 1.790965576171875 0.5339999999999999 Q 1.790965576171875 0.4634999999999999 1.7752155761718749 0.39974999999999994 Q 1.7594655761718752 0.33599999999999997 1.726465576171875 0.2872499999999999 Q 1.6934655761718749 0.23849999999999993 1.6424655761718752 0.20999999999999996 Q 1.591465576171875 0.18149999999999988 1.520965576171875 0.18149999999999988 L 1.258465576171875 0.18149999999999988 L 1.273465576171875 0.16799999999999993 L 1.273465576171875 0.9029999999999999 L 1.264465576171875 0.8865 L 1.520965576171875 0.8865 M 2.269505859375 0.008999999999999897 Q 2.305505859375 0.008999999999999897 2.3332558593750004 0.035250000000000004 Q 2.361005859375 0.06149999999999989 2.361005859375 0.10049999999999992 L 2.361005859375 0.9674999999999999 Q 2.361005859375 1.0065 2.3325058593750003 1.0327499999999998 Q 2.304005859375 1.059 2.266505859375 1.059 Q 2.2245058593750002 1.059 2.199005859375 1.0327499999999998 Q 2.173505859375 1.0065 2.173505859375 0.9674999999999999 L 2.173505859375 0.10049999999999992 Q 2.173505859375 0.06149999999999989 2.200505859375 0.035250000000000004 Q 2.2275058593750003 0.008999999999999897 2.269505859375 0.008999999999999897 M 2.9340058593750005 0.008999999999999897 Q 2.9760058593750003 0.008999999999999897 3.0015058593750004 0.035250000000000004 Q 3.0270058593750004 0.06149999999999989 3.0270058593750004 0.10049999999999992 L 3.0270058593750004 0.9674999999999999 Q 3.0270058593750004 1.0065 3.0007558593750003 1.0327499999999998 Q 2.9745058593750002 1.059 2.9310058593750004 1.059 Q 2.8950058593750003 1.059 2.867255859375 1.0327499999999998 Q 2.8395058593750004 1.0065 2.8395058593750004 0.9674999999999999 L 2.8395058593750004 0.10049999999999992 Q 2.8395058593750004 0.06149999999999989 2.868005859375 0.035250000000000004 Q 2.8965058593750004 0.008999999999999897 2.9340058593750005 0.008999999999999897 M 2.2650058593750004 0.4454999999999999 L 2.9340058593750005 0.4454999999999999 L 2.9340058593750005 0.6179999999999999 L 2.2650058593750004 0.6179999999999999 L 2.2650058593750004 0.4454999999999999 M 3.4544970703125 0.9674999999999999 Q 3.4544970703125 1.0065 3.4259970703125004 1.0327499999999998 Q 3.3974970703125003 1.059 3.3599970703125006 1.059 Q 3.3179970703125004 1.059 3.2924970703125003 1.0327499999999998 Q 3.2669970703125 1.0065 3.2669970703125 0.9674999999999999 L 3.2669970703125 0.10049999999999992 Q 3.2669970703125 0.06149999999999989 3.2939970703125003 0.035250000000000004 Q 3.3209970703125005 0.008999999999999897 3.3629970703125003 0.008999999999999897 Q 3.3989970703125003 0.008999999999999897 3.4267470703125005 0.035250000000000004 Q 3.4544970703125 0.06149999999999989 3.4544970703125 0.10049999999999992 L 3.4544970703125 0.9674999999999999 M 4.49103369140625 0.008999999999999897 Q 4.527033691406251 0.008999999999999897 4.549533691406251 0.03299999999999992 Q 4.572033691406251 0.05699999999999994 4.572033691406251 0.09299999999999997 L 4.572033691406251 0.9674999999999999 Q 4.572033691406251 1.0065 4.545783691406251 1.0327499999999998 Q 4.5195336914062505 1.059 4.480533691406251 1.059 Q 4.46103369140625 1.059 4.44078369140625 1.05225 Q 4.42053369140625 1.0454999999999999 4.410033691406251 1.0334999999999999 L 3.8205336914062507 0.2849999999999999 L 3.8595336914062504 0.2609999999999999 L 3.8595336914062504 0.975 Q 3.8595336914062504 1.011 3.8362836914062504 1.035 Q 3.8130336914062504 1.059 3.7755336914062507 1.059 Q 3.7395336914062507 1.059 3.7170336914062503 1.035 Q 3.6945336914062503 1.011 3.6945336914062503 0.975 L 3.6945336914062503 0.10049999999999992 Q 3.6945336914062503 0.06149999999999989 3.7207836914062504 0.035250000000000004 Q 3.7470336914062505 0.008999999999999897 3.7860336914062507 0.008999999999999897 Q 3.8070336914062506 0.008999999999999897 3.8295336914062506 0.017249999999999988 Q 3.8520336914062505 0.025499999999999856 3.8625336914062505 0.041999999999999815 L 4.434033691406251 0.7709999999999999 L 4.408533691406251 0.7889999999999999 L 4.408533691406251 0.09299999999999997 Q 4.408533691406251 0.05699999999999994 4.431033691406251 0.03299999999999992 Q 4.453533691406251 0.008999999999999897 4.49103369140625 0.008999999999999897 M 5.197511718750001 0.24449999999999994 L 4.873511718750001 1.0065 Q 4.863011718750001 1.035 4.841261718750001 1.0507499999999999 Q 4.819511718750001 1.0665 4.794011718750001 1.0665 Q 4.753511718750001 1.0665 4.7340117187500015 1.044 Q 4.714511718750001 1.0214999999999999 4.714511718750001 0.9884999999999999 Q 4.714511718750001 0.975 4.719011718750001 0.96 L 5.092511718750001 0.06299999999999994 Q 5.104511718750001 0.03299999999999992 5.129261718750001 0.01649999999999996 Q 5.154011718750001 0 5.182511718750001 0.0029999999999998916 Q 5.209511718750001 0.0029999999999998916 5.232761718750001 0.018749999999999822 Q 5.256011718750001 0.034499999999999975 5.266511718750001 0.06299999999999994 L 5.635511718750001 0.942 Q 5.643011718750001 0.9614999999999999 5.643011718750001 0.978 Q 5.643011718750001 1.0185 5.616761718750001 1.0425 Q 5.590511718750001 1.0665 5.559011718750001 1.0665 Q 5.532011718750001 1.0665 5.510261718750001 1.05 Q 5.488511718750001 1.0334999999999999 5.476511718750001 1.005 L 5.154011718750001 0.25349999999999995 L 5.197511718750001 0.24449999999999994 M 4.920011718750001 0.8234999999999999 L 5.002511718750001 0.6509999999999999 L 5.407511718750001 0.6509999999999999 L 5.436011718750001 0.8234999999999999 L 4.920011718750001 0.8234999999999999 M 6.065995605468751 1.059 Q 6.023995605468751 1.059 5.996995605468751 1.0327499999999998 Q 5.969995605468751 1.0065 5.969995605468751 0.9674999999999999 L 5.969995605468751 0.09749999999999992 L 6.164995605468751 0.09749999999999992 L 6.164995605468751 0.9674999999999999 Q 6.164995605468751 1.0065 6.137245605468751 1.0327499999999998 Q 6.109495605468751 1.059 6.065995605468751 1.059 M 5.734495605468751 0.18149999999999988 Q 5.695495605468751 0.18149999999999988 5.669245605468751 0.15749999999999997 Q 5.642995605468751 0.13349999999999995 5.642995605468751 0.09449999999999992 Q 5.642995605468751 0.05549999999999988 5.669245605468751 0.03224999999999989 Q 5.695495605468751 0.008999999999999897 5.734495605468751 0.008999999999999897 L 6.400495605468751 0.008999999999999897 Q 6.439495605468751 0.008999999999999897 6.465745605468751 0.03299999999999992 Q 6.491995605468751 0.05699999999999994 6.491995605468751 0.09599999999999997 Q 6.491995605468751 0.1349999999999999 6.465745605468751 0.1582499999999999 Q 6.439495605468751 0.18149999999999988 6.400495605468751 0.18149999999999988 L 5.734495605468751 0.18149999999999988 M 6.76046044921875 0.008999999999999897 Q 6.796460449218751 0.008999999999999897 6.82421044921875 0.035250000000000004 Q 6.85196044921875 0.06149999999999989 6.85196044921875 0.10049999999999992 L 6.85196044921875 0.9674999999999999 Q 6.85196044921875 1.0065 6.82346044921875 1.0327499999999998 Q 6.794960449218751 1.059 6.75746044921875 1.059 Q 6.71546044921875 1.059 6.68996044921875 1.0327499999999998 Q 6.66446044921875 1.0065 6.66446044921875 0.9674999999999999 L 6.66446044921875 0.10049999999999992 Q 6.66446044921875 0.06149999999999989 6.69146044921875 0.035250000000000004 Q 6.7184604492187505 0.008999999999999897 6.76046044921875 0.008999999999999897 M 7.424960449218751 0.008999999999999897 Q 7.4669604492187505 0.008999999999999897 7.4924604492187505 0.035250000000000004 Q 7.517960449218751 0.06149999999999989 7.517960449218751 0.10049999999999992 L 7.517960449218751 0.9674999999999999 Q 7.517960449218751 1.0065 7.4917104492187505 1.0327499999999998 Q 7.46546044921875 1.059 7.4219604492187505 1.059 Q 7.38596044921875 1.059 7.358210449218751 1.0327499999999998 Q 7.330460449218751 1.0065 7.330460449218751 0.9674999999999999 L 7.330460449218751 0.10049999999999992 Q 7.330460449218751 0.06149999999999989 7.358960449218751 0.035250000000000004 Q 7.38746044921875 0.008999999999999897 7.424960449218751 0.008999999999999897 M 6.75596044921875 0.4454999999999999 L 7.424960449218751 0.4454999999999999 L 7.424960449218751 0.6179999999999999 L 6.75596044921875 0.6179999999999999 L 6.75596044921875 0.4454999999999999" fill="#202020" fill-rule="nonzero"></path></g><g><path d=" M 0.09675 1.939425 Q 0.08325 1.939425 0.074625 1.930425 Q 0.066 1.921425 0.066 1.908675 L 0.066 1.4444249999999998 Q 0.066 1.4316749999999998 0.074625 1.42305 Q 0.08325 1.414425 0.096 1.414425 L 0.35925 1.414425 Q 0.372 1.414425 0.381 1.422675 Q 0.39 1.4309249999999998 0.39 1.4436749999999998 Q 0.39 1.4556749999999998 0.381 1.463925 Q 0.372 1.472175 0.35925 1.472175 L 0.123 1.472175 L 0.1275 1.466175 L 0.1275 1.649925 L 0.12375 1.641675 L 0.3255 1.641675 Q 0.33825 1.641675 0.34725 1.6502999999999999 Q 0.35625 1.658925 0.35625 1.671675 Q 0.35625 1.682925 0.34725 1.6915499999999999 Q 0.33825 1.700175 0.3255 1.700175 L 0.12225 1.700175 L 0.1275 1.693425 L 0.1275 1.908675 Q 0.1275 1.921425 0.11850000000000001 1.930425 Q 0.1095 1.939425 0.09675 1.939425 M 0.5595018310546875 1.908675 Q 0.5595018310546875 1.921425 0.5501268310546875 1.930425 Q 0.5407518310546875 1.939425 0.5280018310546875 1.939425 Q 0.5137518310546875 1.939425 0.5055018310546875 1.930425 Q 0.4972518310546875 1.921425 0.4972518310546875 1.908675 L 0.4972518310546875 1.4451749999999999 Q 0.4972518310546875 1.4316749999999998 0.5062518310546875 1.42305 Q 0.5152518310546875 1.414425 0.5287518310546875 1.414425 Q 0.5415018310546875 1.414425 0.5505018310546875 1.42305 Q 0.5595018310546875 1.4316749999999998 0.5595018310546875 1.4451749999999999 L 0.5595018310546875 1.908675 M 0.98848095703125 1.880175 Q 1.00123095703125 1.880175 1.01023095703125 1.8888 Q 1.01923095703125 1.897425 1.01923095703125 1.910175 Q 1.01923095703125 1.922925 1.01023095703125 1.9311749999999999 Q 1.00123095703125 1.939425 0.98848095703125 1.939425 L 0.72898095703125 1.939425 Q 0.7162309570312501 1.939425 0.7076059570312501 1.930425 Q 0.69898095703125 1.921425 0.69898095703125 1.908675 L 0.69898095703125 1.4444249999999998 Q 0.69898095703125 1.4316749999999998 0.70798095703125 1.42305 Q 0.71698095703125 1.414425 0.73048095703125 1.414425 Q 0.74323095703125 1.414425 0.75223095703125 1.42305 Q 0.76123095703125 1.4316749999999998 0.76123095703125 1.4444249999999998 L 0.76123095703125 1.893675 L 0.74623095703125 1.880175 L 0.98848095703125 1.880175 M 1.221708984375 1.939425 Q 1.208208984375 1.939425 1.199208984375 1.930425 Q 1.190208984375 1.921425 1.190208984375 1.908675 L 1.190208984375 1.4451749999999999 L 1.253958984375 1.4451749999999999 L 1.253958984375 1.908675 Q 1.253958984375 1.921425 1.244958984375 1.930425 Q 1.2359589843749998 1.939425 1.221708984375 1.939425 M 1.047708984375 1.471425 Q 1.034958984375 1.471425 1.026333984375 1.46355 Q 1.017708984375 1.4556749999999998 1.017708984375 1.442925 Q 1.017708984375 1.430175 1.026333984375 1.4223 Q 1.034958984375 1.414425 1.047708984375 1.414425 L 1.396458984375 1.414425 Q 1.409208984375 1.414425 1.418208984375 1.4223 Q 1.427208984375 1.430175 1.427208984375 1.442925 Q 1.427208984375 1.4564249999999999 1.418208984375 1.463925 Q 1.409208984375 1.471425 1.396458984375 1.471425 L 1.047708984375 1.471425 M 1.5547261962890626 1.414425 L 1.8217261962890625 1.414425 Q 1.8344761962890626 1.414425 1.8434761962890625 1.422675 Q 1.8524761962890626 1.4309249999999998 1.8524761962890626 1.4436749999999998 Q 1.8524761962890626 1.4564249999999999 1.8434761962890625 1.4643 Q 1.8344761962890626 1.472175 1.8217261962890625 1.472175 L 1.5802261962890625 1.472175 L 1.5869761962890625 1.459425 L 1.5869761962890625 1.649175 L 1.5794761962890624 1.640925 L 1.7879761962890626 1.640925 Q 1.8007261962890626 1.640925 1.8097261962890625 1.649175 Q 1.8187261962890626 1.657425 1.8187261962890626 1.670175 Q 1.8187261962890626 1.682925 1.8097261962890625 1.6907999999999999 Q 1.8007261962890626 1.698675 1.7879761962890626 1.698675 L 1.5817261962890625 1.698675 L 1.5869761962890625 1.691925 L 1.5869761962890625 1.886175 L 1.5824761962890626 1.880925 L 1.8217261962890625 1.880925 Q 1.8344761962890626 1.880925 1.8434761962890625 1.8899249999999999 Q 1.8524761962890626 1.898925 1.8524761962890626 1.910175 Q 1.8524761962890626 1.922925 1.8434761962890625 1.9311749999999999 Q 1.8344761962890626 1.939425 1.8217261962890625 1.939425 L 1.5547261962890626 1.939425 Q 1.5419761962890626 1.939425 1.5333511962890625 1.930425 Q 1.5247261962890626 1.921425 1.5247261962890626 1.908675 L 1.5247261962890626 1.4444249999999998 Q 1.5247261962890626 1.4316749999999998 1.5333511962890625 1.42305 Q 1.5419761962890626 1.414425 1.5547261962890626 1.414425 M 2.337731689453125 1.448925 Q 2.350481689453125 1.4556749999999998 2.352356689453125 1.469175 Q 2.354231689453125 1.482675 2.345231689453125 1.493925 Q 2.338481689453125 1.5036749999999999 2.327981689453125 1.504425 Q 2.317481689453125 1.505175 2.306981689453125 1.499925 Q 2.282231689453125 1.484925 2.253731689453125 1.4763 Q 2.225231689453125 1.4676749999999998 2.193731689453125 1.4676749999999998 Q 2.149481689453125 1.4676749999999998 2.112731689453125 1.48305 Q 2.075981689453125 1.498425 2.048981689453125 1.5261749999999998 Q 2.021981689453125 1.553925 2.006981689453125 1.592175 Q 1.991981689453125 1.630425 1.991981689453125 1.676925 Q 1.991981689453125 1.7264249999999999 2.007731689453125 1.765425 Q 2.023481689453125 1.804425 2.0508566894531253 1.8317999999999999 Q 2.078231689453125 1.859175 2.114606689453125 1.873425 Q 2.150981689453125 1.887675 2.193731689453125 1.887675 Q 2.224481689453125 1.887675 2.252981689453125 1.879425 Q 2.281481689453125 1.871175 2.306981689453125 1.8554249999999999 Q 2.317481689453125 1.850175 2.327981689453125 1.851675 Q 2.338481689453125 1.853175 2.345981689453125 1.862175 Q 2.3549816894531252 1.874175 2.352731689453125 1.8873 Q 2.350481689453125 1.900425 2.338481689453125 1.906425 Q 2.3197316894531252 1.917675 2.2957316894531252 1.92705 Q 2.271731689453125 1.936425 2.245856689453125 1.941675 Q 2.219981689453125 1.946925 2.193731689453125 1.946925 Q 2.139731689453125 1.946925 2.091731689453125 1.928175 Q 2.043731689453125 1.909425 2.006981689453125 1.874175 Q 1.970231689453125 1.838925 1.9488566894531252 1.78905 Q 1.927481689453125 1.739175 1.927481689453125 1.676925 Q 1.927481689453125 1.618425 1.9477316894531251 1.569675 Q 1.967981689453125 1.520925 2.0043566894531253 1.484925 Q 2.040731689453125 1.448925 2.089106689453125 1.428675 Q 2.137481689453125 1.4084249999999998 2.193731689453125 1.4084249999999998 Q 2.232731689453125 1.4084249999999998 2.269856689453125 1.418925 Q 2.306981689453125 1.429425 2.337731689453125 1.448925 M 2.482496337890625 1.414425 Q 2.495246337890625 1.414425 2.504246337890625 1.42305 Q 2.513246337890625 1.4316749999999998 2.513246337890625 1.4451749999999999 L 2.513246337890625 1.908675 Q 2.513246337890625 1.921425 2.503871337890625 1.930425 Q 2.494496337890625 1.939425 2.481746337890625 1.939425 Q 2.467496337890625 1.939425 2.459246337890625 1.930425 Q 2.4509963378906248 1.921425 2.4509963378906248 1.908675 L 2.4509963378906248 1.4451749999999999 Q 2.4509963378906248 1.4316749999999998 2.459996337890625 1.42305 Q 2.468996337890625 1.414425 2.482496337890625 1.414425 M 2.828246337890625 1.414425 Q 2.841746337890625 1.414425 2.850371337890625 1.42305 Q 2.858996337890625 1.4316749999999998 2.858996337890625 1.4451749999999999 L 2.858996337890625 1.908675 Q 2.858996337890625 1.921425 2.849996337890625 1.930425 Q 2.840996337890625 1.939425 2.827496337890625 1.939425 Q 2.814746337890625 1.939425 2.805746337890625 1.930425 Q 2.796746337890625 1.921425 2.796746337890625 1.908675 L 2.796746337890625 1.4451749999999999 Q 2.796746337890625 1.4316749999999998 2.806121337890625 1.42305 Q 2.815496337890625 1.414425 2.828246337890625 1.414425 M 2.479496337890625 1.6431749999999998 L 2.828996337890625 1.6431749999999998 L 2.828246337890625 1.7016749999999998 L 2.477246337890625 1.7016749999999998 L 2.479496337890625 1.6431749999999998" fill="#1192dc" fill-rule="nonzero"></path></g><g clip-path="url(#SvgjsClipPath1001)"><g clip-path="url(#SvgjsClipPath1000211a8705-e356-4dbc-b3b4-d30c6ce3c0fc)"><path d=" M -1.9341835841716333 0.6683530823496211 C -1.835662445262752 0.5074382980948826 -1.6662984525279718 0.4031649423974087 -1.4782578065011391 0.3876504960500086 C -1.4551019179978193 0.3858152703523906 -1.4342398936637084 0.3729606212119869 -1.4221892642633462 0.35310248542851813 C -1.414214167880665 0.3400640233820751 -1.410596707666842 0.3248253146764309 -1.4118608485879651 0.30959358455207797 C -1.4151271396864507 0.26971739731383415 -1.4500730877709118 0.24002139350381585 -1.4899537475969613 0.24323261414996478 C -1.7242132505972947 0.2624706282199387 -1.9352349341114028 0.39232704053446654 -2.057980622231975 0.5927793091151103 C -2.0679858722559414 0.609185599939316 -2.071062665299241 0.6288949556607161 -2.0665339203423514 0.6475701230164845 C -2.0620051753854565 0.666245290372253 -2.0502419986763893 0.6823559400207071 -2.0338330023079854 0.6923567522293445 C -1.9996804103265098 0.7132029489236927 -1.9550980652390433 0.7024639008293132 -1.9341835841716333 0.6683530823496211 Z" fill="#1c1c1c" transform="matrix(1,0,0,1,0,0)" fill-rule="nonzero"></path></g><g clip-path="url(#SvgjsClipPath1000211a8705-e356-4dbc-b3b4-d30c6ce3c0fc)"><path d=" M -2.0775578282508222 0.8622178044516738 C -2.1174988355874236 0.8604895745131349 -2.151303977503598 0.8914132305231212 -2.1531316014853292 0.93134981320572 C -2.1577420815004427 1.0290541251091445 -2.142626671324625 1.126686211726514 -2.10868702532122 1.218422188963668 C -2.1020468390988816 1.2364515506153977 -2.0885098758024285 1.2511004998373363 -2.0710596712622076 1.2591404199949408 C -2.053609466721986 1.267180340152545 -2.0336784169226823 1.267951276267951 -2.0156593092206516 1.2612833146409568 C -2.0073993481535406 1.2582587654313377 -1.9997637732711355 1.2537457259641 -1.9931311272945573 1.2479679355472568 C -1.9704548457823525 1.2281840779152753 -1.9623627224533764 1.196445767655088 -1.972798183543365 1.168219611029316 C -1.9999559451143896 1.094603057796768 -2.012035197292858 1.0162776130731115 -2.0083178569635836 0.9378995402193777 C -2.007439524546609 0.9186755044038898 -2.014246276992322 0.8998919816522156 -2.0272362189781 0.8856935159577818 C -2.0402261609638837 0.8714950502633473 -2.0583316785941634 0.8630485813467115 -2.0775578282508222 0.8622178044516738 Z" fill="#1c1c1c" transform="matrix(1,0,0,1,0,0)" fill-rule="nonzero"></path></g><g clip-path="url(#SvgjsClipPath1000211a8705-e356-4dbc-b3b4-d30c6ce3c0fc)"><path d=" M -1.7941921661324725 1.4198083008781088 C -1.8089924893245959 1.4075186679455591 -1.8280822539775516 1.4016377540136105 -1.8472325431937362 1.403468346033923 C -1.8663828324099265 1.405298938054235 -1.8840127442305485 1.4146899162981206 -1.8962167599990587 1.429560916376467 C -1.9215960106221963 1.4605185435889065 -1.91715456007165 1.506172149429142 -1.8862842069453865 1.5316574852651856 C -1.7431922989853588 1.6495068986829398 -1.5607129117823153 1.7086699365412688 -1.3756933999685954 1.697200036159829 C -1.2135981211920528 1.687985664214016 -1.0592578952394274 1.6247520352754534 -0.9372935401862954 1.517586368439141 C -0.8035497409975048 1.4010226526865028 -0.7166053237148788 1.2399197618392859 -0.6925784649507378 1.0641437290320748 C -0.6899773968716696 1.045097684343516 -0.6950489739545649 1.0257984533009106 -0.7066774803219695 1.0104917484597724 C -0.71830598668938 0.9951850436186342 -0.7355388502080289 0.9851247440261182 -0.7545849465141081 0.9825240539388025 C -0.7942239032314629 0.9771253863228004 -0.8307526658804225 1.004831865176419 -0.8362406091184358 1.0444585604800374 C -0.8555305295908398 1.185576145173142 -0.9253437805576037 1.3149096677974628 -1.0327324195281704 1.4084722348929324 C -1.1305658246369708 1.4945040221964743 -1.2544048462533062 1.545273713174241 -1.38447435266822 1.552674191726592 C -1.5329370789474535 1.5618086257046588 -1.6793439884364347 1.5143308646301488 -1.7941921661324725 1.4198083008781088 Z" fill="#3395ef" transform="matrix(1,0,0,1,0,0)" fill-rule="nonzero"></path></g><g clip-path="url(#SvgjsClipPath1000211a8705-e356-4dbc-b3b4-d30c6ce3c0fc)"><path d=" M -1.167577623485183 0.14527460903361186 C -1.0905620876286242 0.16029512337042104 -1.0173524359346022 0.19064616586476624 -0.9523003323000181 0.23452363647246344 C -0.9190762797573084 0.2568218005510773 -0.8740680418134581 0.2479780200817977 -0.8517512263870435 0.2147664928982979 C -0.8409744417866405 0.19879472827384043 -0.8370006718949574 0.17918927124586176 -0.8407078889914168 0.16028178878672616 C -0.8444151060878586 0.1413743063275902 -0.8554981708845073 0.12472106438671562 -0.8715083699612118 0.11400146191895019 C -0.9526062069715198 0.05933156306536569 -1.043887256335282 0.021560938456010648 -1.139903227476923 0.0029440027752825337 C -1.1587620866576618 -0.0007614084208970931 -1.1783202039854277 0.0031946408245984506 -1.1942564662960424 0.013938112577220621 C -1.2101927286066627 0.02468158432984316 -1.2211954615700589 0.04132821000521074 -1.2248337535880784 0.06020013287819043 C -1.2265512055271612 0.06882586988681287 -1.2266731789969678 0.077693341141645 -1.2251936286987148 0.08636305342175735 C -1.2201050409090706 0.11606954918580756 -1.1971636405663546 0.1395268086243029 -1.1675776234851887 0.14527460903361186 Z" fill="#1c1c1c" transform="matrix(1,0,0,1,0,0)" fill-rule="nonzero"></path></g><g clip-path="url(#SvgjsClipPath1000211a8705-e356-4dbc-b3b4-d30c6ce3c0fc)"><path d=" M -1.19960650833218 0.4096388653101447 C -1.0364686454700536 0.47964620063360885 -0.9136831005781609 0.6195984449298234 -0.865498455613513 0.7904587073899518 C -0.8584524960313131 0.8126017458471989 -0.8411929209929159 0.830008609733872 -0.8191105538519383 0.8372424717732205 C -0.8045758245105881 0.8419786740206513 -0.7889128069406934 0.8419786740206513 -0.7743780775993316 0.8372424717732205 C -0.7363256243533987 0.8249438111691024 -0.7154006694376644 0.7841723413217424 -0.72759431321606 0.7460861062479751 C -0.7992454477445936 0.5227476125844622 -0.9266412369113386 0.3733634541575789 -1.1401911275654262 0.2772767996165576 C -1.157714484403023 0.2693905901003641 -1.1776531793563616 0.268789732540011 -1.195619612526977 0.275606448356057 C -1.2135860456975804 0.28242316417210267 -1.2281080101554478 0.2960988774820138 -1.2359898820179376 0.3136241857912514 C -1.2439319200668058 0.331176888799169 -1.244558769252757 0.35116936572470914 -1.2377319540969896 0.36918513509720086 C -1.230905138941222 0.3872009044696925 -1.2171864731471653 0.4017573560411148 -1.19960650833218 0.4096388653101447 Z" fill="#1c1c1c" transform="matrix(1,0,0,1,0,0)" fill-rule="nonzero"></path></g><g clip-path="url(#SvgjsClipPath1000211a8705-e356-4dbc-b3b4-d30c6ce3c0fc)"><path d=" M -0.6708060207569888 1.5609873067823883 C -0.6775393209988461 1.5553238917233698 -0.6852627987079665 1.5509557953254796 -0.6935861152605369 1.548103777821458 C -0.7220430655766283 1.5383975283320375 -0.7535380747212042 1.547259078632261 -0.7727586396014479 1.5703800471701062 C -0.8229530578639284 1.6306847394359976 -0.8847558163714886 1.6802860424520583 -0.9544955704749198 1.7162374295127127 C -0.990025451004259 1.734648117072758 -1.0039119340966953 1.7783695963220045 -0.9855168050121355 1.813907534540552 C -0.9766755415574877 1.8309889543994817 -0.9614072936557494 1.8438556816813543 -0.9430745658966155 1.8496740952779567 C -0.9247418381374934 1.8554925088745584 -0.9048481732906404 1.853785416640288 -0.8877747249621761 1.8449287690777656 C -0.8008535874391456 1.8000998410823856 -0.7238461554229367 1.7382319820801686 -0.661341305347158 1.6630119006489779 C -0.6490462880694379 1.6482361955731777 -0.6431345487437046 1.629176196519958 -0.6449101383678191 1.6100362855527375 C -0.6466857279919394 1.590896374585517 -0.6560027598550564 1.5732491327889684 -0.6708060207569888 1.5609873067823883 Z" fill="#1c1c1c" transform="matrix(1,0,0,1,0,0)" fill-rule="nonzero"></path></g><g clip-path="url(#SvgjsClipPath1000211a8705-e356-4dbc-b3b4-d30c6ce3c0fc)"><path d=" M -0.43343239777849885 0.7034768931481366 C -0.47183738455186797 0.5582886058357956 -0.541584868356729 0.42327722955907254 -0.6377694856001925 0.30793815904313027 C -0.6634940770855882 0.2773562012284207 -0.7090804731672293 0.2732733575737184 -0.7398300669778513 0.29879733123286173 C -0.7705401298409755 0.32444084550976526 -0.7746788360465349 0.3701115490077281 -0.7490788573213116 0.40085791261051573 C -0.6665133938614474 0.49981988525985444 -0.6066300105964226 0.615668128864459 -0.5736397408840535 0.7402561294555976 C -0.5534820242673759 0.8172582728886557 -0.5438576728688078 0.896637986247648 -0.5450296695881274 0.9762262395025927 C -0.5464371017711425 1.0911418293147253 -0.5705300238011182 1.20464762086811 -0.6159250663843043 1.310226329688069 C -0.6317479809485491 1.3470057784449534 -0.6147679766527807 1.38964910991641 -0.5779942297228022 1.4054852714746158 C -0.5693017311978734 1.4092610409561284 -0.5599404304845519 1.4112556710427573 -0.5504637837587965 1.4113512357780567 C -0.5210866737281108 1.4118248056637719 -0.49433866403473314 1.3944905027311718 -0.4827712754473088 1.3674824597909758 C -0.4298489194433954 1.244454815577249 -0.4017213243965685 1.1121939719114053 -0.39999999999998836 0.9782775276332436 C -0.39861920326168576 0.8855844348666229 -0.409866655742388 0.7931349761555252 -0.43343239777849885 0.7034768931481319 Z" fill="#3395ef" transform="matrix(1,0,0,1,0,0)" fill-rule="nonzero"></path></g><g clip-path="url(#SvgjsClipPath1000211a8705-e356-4dbc-b3b4-d30c6ce3c0fc)"><path d=" M -1.256754675901905 1.826107300791266 C -1.3156721829011147 1.8373225905903137 -1.3755705832838176 1.8425673176769626 -1.4355406308681247 1.8417618681041288 C -1.92024538063094 1.8343027672894487 -2.307443951680188 1.4358992481943715 -2.3010762594696543 0.9511789318020124 C -2.300515678305906 0.9111761280199743 -2.332473130295553 0.8782844360024024 -2.372475481420734 0.8776924342092169 C -2.4125041927785578 0.8771317523711064 -2.445422299338549 0.9090996787515341 -2.44603395403566 0.9491276436713615 C -2.453422584174927 1.5138433367680093 -2.002289800683626 1.977968203489542 -1.4375919189987718 1.9866116001369425 C -1.3677452700413508 1.9876408723113241 -1.2979759140587748 1.9815393696968784 -1.2293681799821599 1.968401919538531 C -1.2104808154371909 1.964809969011309 -1.1937974382165026 1.9538538142570492 -1.1829961342854014 1.9379488942185028 C -1.1721948303543002 1.9220439741799562 -1.168162512563682 1.902496268030061 -1.1717881622796829 1.8836153434716227 C -1.1753768241112557 1.864694214341075 -1.1863625654199963 1.8479852801268157 -1.2023113397377616 1.8371906416855674 C -1.2182601140555214 1.826396003244319 -1.2378550729324544 1.822406945549764 -1.256754675901905 1.826107300791266 Z" fill="#1c1c1c" transform="matrix(1,0,0,1,0,0)" fill-rule="nonzero"></path></g><g clip-path="url(#SvgjsClipPath1000211a8705-e356-4dbc-b3b4-d30c6ce3c0fc)"><path d=" M -2.322308890997446 0.7243856370763514 C -2.282234357615216 0.7243657686884962 -2.24975806376708 0.6918733655676209 -2.249758068692313 0.6517988272601568 C -2.249777925194129 0.6117383422283791 -2.2822484059656998 0.5792678614568302 -2.3223088909974576 0.5792480049550255 C -2.3623834293049093 0.5792480000297923 -2.394875832425781 0.6117242938779256 -2.39489570081364 0.6517988272601568 C -2.3948957008136516 0.6710500461682587 -2.3872481838792035 0.6895127852698617 -2.3736355164431795 0.7031254527058872 C -2.3600228490071613 0.7167381201419124 -2.341560109905553 0.7243856370763517 -2.322308890997452 0.7243856370763514 Z" fill="#1c1c1c" transform="matrix(1,0,0,1,0,0)" fill-rule="nonzero"></path></g><g clip-path="url(#SvgjsClipPath1000211a8705-e356-4dbc-b3b4-d30c6ce3c0fc)"><path d=" M -1.091536012606834 0.9502792440254112 C -1.051461479224604 0.9502593756375559 -1.0189851853764735 0.9177669725166803 -1.0189851903017009 0.8776924342092162 C -1.0190050468035226 0.8376319491774386 -1.0514755275750878 0.8051614684058896 -1.0915360126068516 0.8051416119040848 C -1.1316105509142915 0.8051416069788516 -1.1641029540351633 0.837617900826985 -1.1641228224230222 0.8776924342092162 C -1.1641228224230338 0.8969436531173185 -1.1564753054885857 0.9154063922189211 -1.1428626380525617 0.9290190596549467 C -1.1292499706165433 0.9426317270909719 -1.1107872315149352 0.9502792440254115 -1.091536012606834 0.9502792440254112 Z" fill="#3395ef" transform="matrix(1,0,0,1,0,0)" fill-rule="nonzero"></path></g><g clip-path="url(#SvgjsClipPath1000211a8705-e356-4dbc-b3b4-d30c6ce3c0fc)"><path d=" M -2.237270402353085 0.45743028000320696 C -2.2238947636451796 0.4676944580657204 -2.2073307251363814 0.47291850098003196 -2.1904866379698076 0.4721851595394684 C -2.168930770310528 0.4713900282753397 -2.148867903154173 0.46096896034488255 -2.1358216086635284 0.44379101330993054 C -1.9775785743585854 0.23509812128880697 -1.7343003684050575 0.10810607932923932 -1.4726077672640883 0.09759115687374187 C -1.4533985906590752 0.09681510263092538 -1.435286602055258 0.0884316543816808 -1.4222644453847468 0.07428887666020917 C -1.4092422887142355 0.060146098938737166 -1.4023791157494931 0.04140514932062318 -1.4031878584215285 0.022197321194551076 C -1.4048242916510274 -0.01779415245914193 -1.4385528661602272 -0.04889724576251278 -1.478545706589654 -0.04729456267013535 C -1.7833983481222249 -0.03508600933004888 -2.066801920053431 0.11286684065518687 -2.2510896066016817 0.3560174738247056 C -2.262715011286668 0.37129459238553963 -2.2677907042751246 0.39056641183243557 -2.2651986885933013 0.40958802691413704 C -2.2626066729114775 0.42860964199583884 -2.252559569440586 0.44582072551640767 -2.237270402353085 0.4574302800032074 Z" fill="#3395ef" transform="matrix(1,0,0,1,0,0)" fill-rule="nonzero"></path></g><g clip-path="url(#SvgjsClipPath1000211a8705-e356-4dbc-b3b4-d30c6ce3c0fc)"><path d=" M -1.070411343612236 1.0334463820944373 C -1.078574278896432 1.0301396847097688 -1.087299170912936 1.0284411413059966 -1.0961064265119647 1.0284441180565334 C -1.1240299961343876 1.0283993544996408 -1.1491751123080969 1.0453384724206278 -1.1596243835400248 1.0712332687116928 C -1.1725977540020112 1.1063699383691572 -1.194265094613197 1.1376451968742045 -1.222602527902116 1.1621377216594901 C -1.2422080298029061 1.180229652054157 -1.264166899374684 1.195591176578185 -1.2878838729723028 1.2078058731997732 C -1.3220694701033457 1.2254874699999145 -1.359403622537234 1.2362609348850282 -1.3977537442508594 1.239510870447204 C -1.4159456190529527 1.2409101058992003 -1.4328080226781452 1.249574787146608 -1.4445375086341368 1.2635505278379913 C -1.4563225447901065 1.2773693196793856 -1.462077729116798 1.2953348275099983 -1.4605159635465745 1.313429218172768 C -1.459853006979109 1.3223997476693645 -1.4574060294366675 1.3311476923835994 -1.4533184613337613 1.3391602885835663 C -1.441602991613947 1.3619722692604956 -1.4181080446093075 1.3763109950492503 -1.392463580124439 1.376299400001669 C -1.3905202545269855 1.376299400001669 -1.3885409414184713 1.376299400001669 -1.3866336033320668 1.3760474874242208 C -1.3303843871000394 1.3713299331386675 -1.2756199494821192 1.355553665937435 -1.2254815287872414 1.3296235981515927 C -1.1907334507900769 1.311762234779443 -1.158577507954744 1.289255496175948 -1.1298986994011173 1.262722815083518 C -1.0867774675669217 1.2245351265872708 -1.0535176614746355 1.1764972997479628 -1.0329483445945582 1.1226954095332886 C -1.0187582379003695 1.0877054444316983 -1.0354983989816167 1.0478249454100959 -1.0704113436122302 1.0334463820944373 Z" fill="#1c1c1c" transform="matrix(1,0,0,1,0,0)" fill-rule="nonzero"></path></g><g clip-path="url(#SvgjsClipPath1000211a8705-e356-4dbc-b3b4-d30c6ce3c0fc)"><path d=" M -1.5885955154235374 1.2102170364410652 C -1.605135269168037 1.1987287295989602 -1.620471870157664 1.1855985735630228 -1.6343716294970099 1.1710266368923115 C -1.746276752617328 1.053337919963027 -1.7417848638926063 0.8672706870183516 -1.624331113910138 0.7551189715250524 C -1.5969747098189755 0.7290085447695935 -1.5959280626174017 0.6856773506246512 -1.6219919256909758 0.6582765792516855 C -1.6349567139074066 0.6447163802616452 -1.652893986728848 0.6370345482055033 -1.6716546909593726 0.6370079602128315 C -1.6891971932133103 0.6369903930527937 -1.7060754022877676 0.6437159084244496 -1.7187983304532806 0.6557934409882663 C -1.8908650488359369 0.8202443266185767 -1.8974319233573653 1.0929144767840593 -1.7334812349674102 1.265457865924386 C -1.713191047493344 1.2867493660921947 -1.690787443073376 1.3059214495301603 -1.6666164394104062 1.3226780085162309 C -1.6551785970088269 1.330667076412322 -1.6415576364856639 1.3349393334029824 -1.627605977416966 1.3349137622780085 L -1.627605977416966 1.3349137622780085 C -1.6050971491480799 1.3349587271689307 -1.5840080200545636 1.3239229353012358 -1.5712135475795919 1.3054040032054854 C -1.560827541836212 1.290445013711381 -1.5568379812460562 1.2719609131849139 -1.5601293941718657 1.2540498249170817 C -1.563409286848524 1.2362338620824362 -1.5736536210938907 1.2204594005010754 -1.5885955154235374 1.2102170364410647 Z" fill="#3395ef" transform="matrix(1,0,0,1,0,0)" fill-rule="nonzero"></path></g><g clip-path="url(#SvgjsClipPath1000211a8705-e356-4dbc-b3b4-d30c6ce3c0fc)"><path d=" M -1.2434752843192656 0.7410118671879433 C -1.230832681511573 0.7529665134485829 -1.2140912016318048 0.7596244712161528 -1.1966915199360058 0.7596174104080585 C -1.1777833907533728 0.7595809278812821 -1.1597216595051612 0.7517732630765815 -1.146740854579094 0.7380249037696271 C -1.1208543807675686 0.7104262032383275 -1.122207011650819 0.6670776039800125 -1.149763805508468 0.6411465239851966 C -1.2242859233156338 0.5697436089175074 -1.3247245456430432 0.5318532783772704 -1.4278393035004264 0.5362429292334823 C -1.4459933324793939 0.5362536948470841 -1.4641294380869376 0.5373834456271441 -1.4821444576960752 0.5396257552735028 C -1.519678978437438 0.5443415100411088 -1.5463095125276265 0.578555467079594 -1.541667800996017 0.6160992162846152 C -1.5396702965861255 0.6319390896861432 -1.532212748446481 0.6465869359467707 -1.520579119512474 0.6575208415193394 C -1.5079381071307358 0.6694823312194925 -1.4911985827090306 0.6761523878736797 -1.4737953551292255 0.6761623722505193 L -1.473795355129214 0.6761623722505193 C -1.4709323799864529 0.6761461442747633 -1.4680726855878161 0.6759659114345127 -1.4652303274959597 0.6756225595845591 C -1.452911274222679 0.6740716836658285 -1.4405075053673806 0.6732904385344387 -1.4280912160778747 0.6732833713653951 C -1.3597628630717955 0.6688690072915042 -1.2927383842770523 0.6934577147167859 -1.2434752843192716 0.741011867187944 Z" fill="#1c1c1c" transform="matrix(1,0,0,1,0,0)" fill-rule="nonzero"></path></g></g></g><defs><clipPath id="SvgjsClipPath1001"><path d=" M -2.446141916568854 -0.04733055018119825 h 2.046141916568854 v 2.0340861003623965 h -2.046141916568854 Z"></path></clipPath><clipPath id="SvgjsClipPath1000211a8705-e356-4dbc-b3b4-d30c6ce3c0fc"><path d=" M -2.446141916568854 -0.04733055018119825 L -0.3999999999999999 -0.04733055018119825 L -0.3999999999999999 1.9867555501811982 L -2.446141916568854 1.9867555501811982 Z"></path></clipPath></defs></svg>